<svg width="256" height="256" viewBox="0 0 256 256" fill="none" xmlns="http://www.w3.org/2000/svg">
<rect width="256" height="256" rx="12" fill="black"/>
<path fill-rule="evenodd" clip-rule="evenodd" d="M156.054 81.2459C159.523 81.246 162.645 82.1122 165.42 83.8464C168.282 85.4944 170.582 87.7496 172.316 90.6118C174.051 93.474 174.917 96.5971 174.917 99.9797V124.699C174.917 128.081 174.051 131.203 172.316 134.065C170.582 136.84 168.282 139.095 165.42 140.83C162.645 142.478 159.523 143.301 156.054 143.301L153.078 143.307L174.657 168.932V174.786H154.883L128.534 143.365L99.9816 143.433V174.786H81.2458V81.2459H156.054ZM100.762 99.9797C100.502 99.9797 100.284 100.066 100.111 100.24C100.024 100.327 99.9816 100.5 99.9816 100.76V123.788C99.9817 123.961 100.024 124.134 100.111 124.308C100.284 124.394 100.502 124.439 100.762 124.439H155.143C155.403 124.439 155.576 124.394 155.663 124.308C155.836 124.134 155.923 123.961 155.923 123.788V100.76C155.923 100.5 155.836 100.326 155.663 100.24C155.576 100.066 155.403 99.9797 155.143 99.9797H100.762Z" fill="#800020"/>
<path d="M81.2459 78.1967H156.054V81.2459H81.2459V174.786H99.9817V143.433L128.534 143.365L154.883 174.786H174.657V168.932L153.078 143.307L156.054 143.301C159.523 143.301 162.645 142.478 165.42 140.83C168.282 139.095 170.582 136.84 172.316 134.065C173.942 131.382 174.805 128.47 174.907 125.33L174.917 124.699V99.9797C174.917 96.8084 174.155 93.8657 172.63 91.1518L172.316 90.6118C170.582 87.7496 168.282 85.4944 165.42 83.8464C162.818 82.2204 159.911 81.3574 156.699 81.2558L156.054 81.2459V78.1967C160.02 78.1968 163.675 79.188 166.941 81.2042C170.255 83.1123 172.925 85.7358 174.923 89.0316C176.95 92.3757 177.966 96.0462 177.966 99.9797V124.699L177.954 125.433C177.835 129.089 176.823 132.51 174.923 135.645L174.901 135.681C172.908 138.87 170.261 141.462 167 143.438L166.976 143.452C164.645 144.837 162.118 145.713 159.425 146.106L176.989 166.966L177.706 168.932V174.786L174.657 177.835H154.883L152.546 176.745L127.115 146.418L103.031 146.474V174.786L99.9817 177.835H81.2459L78.1967 174.786V81.2459L81.2459 78.1967ZM100.762 124.439L100.575 124.429C100.396 124.413 100.241 124.373 100.111 124.308C100.046 124.177 100.006 124.047 99.9896 123.917L99.9817 123.788V100.76C99.9817 100.5 100.024 100.327 100.111 100.24C100.241 100.109 100.396 100.028 100.575 99.9956L100.762 99.9797H155.143C155.403 99.9797 155.576 100.066 155.663 100.24C155.836 100.326 155.923 100.5 155.923 100.76V123.788L155.907 123.917C155.875 124.047 155.793 124.177 155.663 124.308C155.576 124.394 155.403 124.439 155.143 124.439H100.762ZM103.031 121.389H152.874V103.029H103.031V121.389ZM153.134 101.802C153.238 102.01 153.372 102.202 153.527 102.374C153.699 102.529 153.891 102.662 154.099 102.767L153.134 101.802Z" fill="#E1DCDC"/>
<path d="M66 70.0656V94.461H70.0655V70.0676H94.459V66.002H70.0655L70.0636 66L66 70.0656Z" fill="#E1DCDC"/>
<path d="M66 185.936V161.541H70.0655V185.934H94.459V190H70.0655L70.0636 190.002L66 185.936Z" fill="#E1DCDC"/>
<path d="M190 70.0656V94.461H185.934V70.0676H161.541V66.002H185.934L185.936 66L190 70.0656Z" fill="#E1DCDC"/>
<path d="M190 185.936V161.541H185.934V185.934H161.541V190H185.934L185.936 190.002L190 185.936Z" fill="#E1DCDC"/>
</svg>
