<svg width="144" height="75" viewBox="0 0 144 75" fill="none" xmlns="http://www.w3.org/2000/svg">
<path d="M104.75 67.0196V57.8676H126.958C127.044 57.8676 127.129 57.825 127.214 57.7396C127.3 57.6543 127.342 57.569 127.342 57.4836V53.5156H107.822C106.158 53.5156 104.644 53.1103 103.278 52.2996C101.913 51.4463 100.804 50.337 99.9504 48.9716C99.1398 47.6063 98.7344 46.113 98.7344 44.4916V16.5236H107.822V44.0436C107.822 44.129 107.865 44.2143 107.95 44.2996C108.036 44.385 108.121 44.4276 108.206 44.4276H126.958C127.044 44.4276 127.129 44.385 127.214 44.2996C127.3 44.2143 127.342 44.129 127.342 44.0436V16.5236H136.43V57.9956C136.43 59.6596 136.025 61.1743 135.214 62.5396C134.446 63.905 133.358 64.993 131.95 65.8036C130.585 66.6143 129.07 67.0196 127.406 67.0196H104.75Z" fill="#800020"/>
<path d="M127.334 44.1074C127.318 44.1714 127.279 44.2358 127.215 44.2998L127.15 44.3555C127.086 44.4035 127.022 44.4277 126.958 44.4277H108.206L108.143 44.4199C108.1 44.4093 108.057 44.3875 108.015 44.3555L107.95 44.2998C107.886 44.2357 107.846 44.1715 107.83 44.1074L107.822 44.0439V16.5234H98.7344V44.4912C98.7344 46.1125 99.1396 47.6064 99.9502 48.9717C100.804 50.337 101.913 51.4465 103.278 52.2998C104.644 53.1104 106.158 53.5156 107.822 53.5156H127.343V57.4834L127.334 57.5479C127.318 57.6116 127.279 57.6755 127.215 57.7393L127.15 57.7959C127.086 57.8438 127.022 57.8672 126.958 57.8672H104.75V67.0195H127.406C128.966 67.0195 130.395 66.6635 131.692 65.9512L131.95 65.8037C133.27 65.0437 134.309 64.0396 135.066 62.792L135.215 62.54C135.975 61.26 136.378 59.8482 136.426 58.3057L136.431 57.9961V16.5234H127.343V44.0439L127.334 44.1074ZM137.931 57.9961L137.925 58.3535C137.87 60.1255 137.404 61.7744 136.521 63.2744L136.521 63.2754C135.616 64.8844 134.332 66.1636 132.699 67.1035L132.698 67.1025C131.094 68.0506 129.319 68.5195 127.406 68.5195H104.75L103.25 67.0195V57.8672L104.75 56.3672H125.843V55.0156H107.822C106.022 55.0156 104.344 54.6013 102.816 53.7627L102.513 53.5898L102.483 53.5713C101.022 52.6581 99.8123 51.4831 98.8643 50.0557L98.6787 49.7666L98.6611 49.7373C97.7099 48.1351 97.2344 46.3761 97.2344 44.4912V16.5234L98.7344 15.0234H107.822L109.322 16.5234V42.9277H125.843V16.5234L127.343 15.0234H136.431L137.931 16.5234V57.9961Z" fill="#E1DCDC"/>
<path d="M66.521 53.5156C64.8996 53.5156 63.385 53.1103 61.977 52.2996C60.6116 51.4463 59.5236 50.337 58.7129 48.9716C57.9023 47.6063 57.4969 46.113 57.4969 44.4916V30.3476H86.0409V25.8676C86.0409 25.7823 85.9983 25.697 85.9129 25.6116C85.8276 25.5263 85.7423 25.4836 85.657 25.4836H57.4969V16.3956H86.1049C87.769 16.3956 89.2836 16.8223 90.6489 17.6756C92.0143 18.4863 93.1023 19.5743 93.913 20.9396C94.7236 22.305 95.129 23.7983 95.129 25.4196V53.5156H66.521ZM66.9689 44.4276H86.0409V38.4756H66.5849V44.0436C66.5849 44.129 66.6276 44.2143 66.713 44.2996C66.7983 44.385 66.8836 44.4276 66.9689 44.4276Z" fill="#800020"/>
<path d="M66.9053 44.4199C66.8625 44.4093 66.8201 44.3875 66.7773 44.3555L66.7129 44.2998C66.6488 44.2357 66.6087 44.1715 66.5928 44.1074L66.585 44.0439V38.4756H86.041V44.4277H66.9688L66.9053 44.4199ZM68.085 42.9277H84.541V39.9756H68.085V42.9277ZM86.041 30.3477H57.4971V44.4912L57.502 44.7939C57.5494 46.299 57.9529 47.6916 58.7129 48.9717C59.5235 50.3369 60.6113 51.4465 61.9766 52.2998C63.3844 53.1104 64.8993 53.5156 66.5205 53.5156H95.1289V25.4199C95.1289 23.9 94.773 22.4922 94.0605 21.1973L93.9131 20.9395C93.1025 19.5743 92.0145 18.4864 90.6494 17.6758C89.2841 16.8224 87.7685 16.3955 86.1045 16.3955V14.8955C88.0397 14.8955 89.8323 15.3958 91.4443 16.4033H91.4434C92.9123 17.2814 94.1098 18.4449 95.0225 19.8809L95.2031 20.1738C96.1543 21.7759 96.6289 23.5351 96.6289 25.4199V53.5156L95.1289 55.0156H66.5205C64.754 55.0156 63.0859 54.5982 61.5371 53.7705L61.2285 53.5996L61.1816 53.5713C59.6165 52.593 58.3574 51.3113 57.4229 49.7373C56.4717 48.1352 55.9971 46.376 55.9971 44.4912V30.3477L57.4971 28.8477H84.541V26.9834H57.4971L55.9971 25.4834V16.3955L57.4971 14.8955H86.1045V16.3955H57.4971V25.4834H85.6572C85.7424 25.4835 85.8279 25.5261 85.9131 25.6113C85.9983 25.6965 86.0409 25.782 86.041 25.8672V30.3477Z" fill="#E1DCDC"/>
<path fill-rule="evenodd" clip-rule="evenodd" d="M44.3008 7.5C46.0072 7.50006 47.543 7.92615 48.9082 8.7793C50.3162 9.58997 51.4474 10.6994 52.3008 12.1074C53.1541 13.5154 53.5801 15.0518 53.5801 16.7158V28.876C53.58 30.5397 53.1539 32.0756 52.3008 33.4834C51.4474 34.8487 50.3162 35.9582 48.9082 36.8115C47.543 37.6221 46.0073 38.0273 44.3008 38.0273L42.8369 38.0303L53.4521 50.6357V53.5156H43.7246L30.7627 38.0586L16.7168 38.0918V53.5156H7.5V7.5H44.3008ZM17.1006 16.7158C16.9726 16.7158 16.8656 16.7584 16.7803 16.8438C16.7377 16.8865 16.7168 16.9718 16.7168 17.0996V28.4277C16.7168 28.513 16.7377 28.5983 16.7803 28.6836C16.8656 28.7263 16.9726 28.748 17.1006 28.748H43.8525C43.9805 28.748 44.0657 28.7262 44.1084 28.6836C44.1937 28.5983 44.2363 28.513 44.2363 28.4277V17.0996C44.2363 16.9716 44.1937 16.8864 44.1084 16.8438C44.0657 16.7584 43.9805 16.7158 43.8525 16.7158H17.1006Z" fill="#800020"/>
<path d="M7.5 6H44.3008V7.5H7.5V53.5156H16.7168V38.0918L30.7627 38.0586L43.7246 53.5156H53.4521V50.6357L42.8369 38.0303L44.3008 38.0273C46.0073 38.0273 47.543 37.6221 48.9082 36.8115C50.3162 35.9582 51.4474 34.8487 52.3008 33.4834C53.1006 32.1636 53.5251 30.7312 53.5752 29.1865L53.5801 28.876V16.7158C53.5801 15.1557 53.2052 13.7081 52.4551 12.373L52.3008 12.1074C51.4474 10.6994 50.3162 9.58997 48.9082 8.7793C47.6282 7.97938 46.1981 7.55484 44.6182 7.50488L44.3008 7.5V6C46.2519 6.00006 48.0499 6.48764 49.6562 7.47949C51.2866 8.41817 52.6003 9.70873 53.583 11.3301C54.58 12.9751 55.0801 14.7808 55.0801 16.7158V28.876L55.0742 29.2373C55.0156 31.0359 54.5176 32.7186 53.583 34.2607L53.5723 34.2783C52.5916 35.8473 51.2896 37.1226 49.6855 38.0947L49.6738 38.1016C48.5268 38.7825 47.2837 39.2135 45.959 39.4072L54.5996 49.6689L54.9521 50.6357V53.5156L53.4521 55.0156H43.7246L42.5752 54.4795L30.0645 39.5605L18.2168 39.5879V53.5156L16.7168 55.0156H7.5L6 53.5156V7.5L7.5 6ZM17.1006 28.748L17.0088 28.7432C16.9207 28.7352 16.8443 28.7156 16.7803 28.6836C16.7482 28.6195 16.7287 28.5553 16.7207 28.4912L16.7168 28.4277V17.0996C16.7168 16.9718 16.7377 16.8865 16.7803 16.8438C16.8444 16.7797 16.9206 16.7396 17.0088 16.7236L17.1006 16.7158H43.8525C43.9805 16.7158 44.0657 16.7584 44.1084 16.8438C44.1937 16.8864 44.2363 16.9716 44.2363 17.0996V28.4277L44.2285 28.4912C44.2126 28.5553 44.1725 28.6195 44.1084 28.6836C44.0657 28.7262 43.9805 28.748 43.8525 28.748H17.1006ZM18.2168 27.248H42.7363V18.2158H18.2168V27.248ZM42.8643 17.6123C42.9157 17.7147 42.9814 17.8088 43.0576 17.8936C43.1423 17.9698 43.2365 18.0354 43.3389 18.0869L42.8643 17.6123Z" fill="#E1DCDC"/>
<path d="M0 2V14.001H2V2.00098H14V0.000976562H2L1.99902 0L0 2Z" fill="#E1DCDC"/>
<path d="M0 59.001V47H2V59H14V61H2L1.99902 61.001L0 59.001Z" fill="#E1DCDC"/>
<path d="M144 73.001V61H142V73H130V75H142L142.001 75.001L144 73.001Z" fill="#E1DCDC"/>
<path d="M144 11V23.001H142V11.001H130V9.00098H142L142.001 9L144 11Z" fill="#E1DCDC"/>
</svg>
